Coordinates
version=1
nRows=26
nColumns=24
inDegrees=yes

Units are S.I. units (second, meters, Newtons, ...)
Angles are in degrees.

endheader
time	pelvis_tilt	pelvis_list	pelvis_rotation	pelvis_tx	pelvis_ty	pelvis_tz	hip_flexion_r	hip_adduction_r	hip_rotation_r	knee_angle_r	ankle_angle_r	subtalar_angle_r	mtp_angle_r	hip_flexion_l	hip_adduction_l	hip_rotation_l	knee_angle_l	ankle_angle_l	subtalar_angle_l	mtp_angle_l	lumbar_extension	lumbar_bending	lumbar_rotation
      0.88300000	     -3.76164622	     -3.26439167	     -1.28041807	     -0.24089055	      1.05908655	      0.34405259	     -2.51718127	      8.90843077	      3.61540960	    -13.82472233	      8.68851754	    -13.75608042	      1.92653446	     25.61201799	     -1.84904662	     -2.49796017	     -1.33022091	     -0.14356415	     -3.40661479	      1.26763778	      4.52275091	      8.03430866	      3.04977129
      0.88716667	     -3.70476880	     -3.25648535	     -1.22563306	     -0.23481325	      1.05855859	      0.34380933	     -2.69763383	      8.88471714	      3.37832445	    -14.29841353	      8.87157226	    -13.44427826	      1.90692709	     25.47575514	     -1.75497638	     -2.66644980	     -1.29593396	     -0.16075390	     -2.76344741	      1.08927843	      4.55649610	      8.03423895	      3.07731137
      0.89133333	     -3.71964219	     -3.26874981	     -1.29374651	     -0.22888083	      1.05795584	      0.34369672	     -2.76805575	      8.87295716	      3.33980527	    -14.82884042	      8.84635319	    -13.42751260	      1.90483219	     25.38134057	     -1.73876732	     -2.62094776	     -1.28043738	     -0.14868319	     -2.67467296	      1.06800243	      4.58553090	      8.03701684	      3.07570094
      0.89550000	     -3.65062499	     -3.25983107	     -1.24997039	     -0.22278566	      1.05748500	      0.34338036	     -2.91870309	      8.82947173	      3.05512362	    -15.37746991	      8.89250480	    -12.97995727	      1.90167170	     25.22389550	     -1.64307731	     -2.68443393	     -1.37290212	     -0.12594291	     -2.14530332	      0.92571143	      4.55869391	      8.04996805	      3.10724877
      0.89966667	     -3.64870917	     -3.25850525	     -1.32491841	     -0.21680040	      1.05696205	      0.34330459	     -2.97102563	      8.79603798	      3.00926920	    -15.98400333	      8.86288055	    -12.96445102	      1.90200320	     25.10224970	     -1.61932723	     -2.60808331	     -1.47443963	     -0.14221539	     -2.07031823	      0.91170807	      4.60663040	      8.03587831	      3.11092940
      0.90383333	     -3.63357463	     -3.24640523	     -1.39400039	     -0.21075413	      1.05648427	      0.34316703	     -3.01451999	      8.74184769	      2.89043316	    -16.63905571	      8.81331511	    -12.90437346	      1.90400680	     24.96066708	     -1.57668669	     -2.53489307	     -1.62230738	     -0.18561647	     -1.96842578	      0.89761654	      4.65333720	      8.02098374	      3.11965870
      0.90800000	     -3.56338958	     -3.21934396	     -1.29351815	     -0.20454833	      1.05607944	      0.34268433	     -3.10338823	      8.65784108	      2.45138752	    -17.29861136	      8.71535621	    -12.25027174	      1.92686246	     24.78939867	     -1.43046036	     -2.43971361	     -1.85121091	     -0.37984324	     -1.57439122	      0.81791763	      4.60586553	      7.99958319	      3.17419526
      0.91216667	     -3.53460264	     -3.19422668	     -1.38677635	     -0.19849293	      1.05568448	      0.34260765	     -3.11275472	      8.58072425	      2.36433202	    -18.05102738	      8.66559815	    -12.19949583	      1.93129747	     24.61431023	     -1.38806047	     -2.33601343	     -2.06124517	     -0.41924021	     -1.50534062	      0.80818431	      4.66014937	      7.97990514	      3.18014177
      0.91633333	     -3.47302860	     -3.14433637	     -1.33062732	     -0.19228403	      1.05534028	      0.34211427	     -3.13230162	      8.45063972	      1.92820752	    -18.82775962	      8.50798819	    -11.46193690	      1.97485869	     24.42211224	     -1.23242379	     -2.18617925	     -2.31933106	     -0.68362364	     -1.32774716	      0.74196416	      4.60239240	      7.93076604	      3.23500487
      0.92050000	     -3.38713524	     -3.08128579	     -1.35448767	     -0.18612906	      1.05508960	      0.34175234	     -3.14865024	      8.29946374	      1.62684265	    -19.67214370	      8.42883016	    -10.89402973	      2.03650215	     24.16949961	     -1.09992999	     -1.99326279	     -2.55553428	     -0.89589263	     -1.36481748	      0.67410086	      4.54958912	      7.88997806	      3.27280558
      0.92466667	     -3.36245623	     -2.99588593	     -1.43581401	     -0.17991642	      1.05480475	      0.34152807	     -3.06857522	      8.12336345	      1.39530827	    -20.58276951	      8.28485747	    -10.72967620	      2.06126781	     23.96338561	     -0.97432082	     -1.86564582	     -2.79857367	     -1.03509656	     -1.35604720	      0.65497285	      4.54224253	      7.85257288	      3.28491630
      0.92883333	     -3.28320792	     -2.95358396	     -1.38665190	     -0.17379590	      1.05456764	      0.34111767	     -3.01660024	      7.99285511	      1.01510921	    -21.51133771	      7.92212017	    -10.10240379	      2.13323442	     23.73608803	     -0.84011671	     -1.63817063	     -3.08740000	     -1.43292981	     -1.50322613	      0.61538803	      4.55950479	      7.74645558	      3.34103820
      0.93300000	     -3.20535937	     -2.84452743	     -1.42805524	     -0.16759535	      1.05442340	      0.34061807	     -2.92459864	      7.75254239	      0.67607606	    -22.53347764	      7.71000903	     -9.42628088	      2.28118921	     23.43765139	     -0.65355356	     -1.26073138	     -3.27750521	     -1.84494361	     -1.96201831	      0.56411981	      4.55608961	      7.72484311	      3.37205985
      0.93716667	     -3.15875382	     -2.76575491	     -1.41338435	     -0.16148678	      1.05422222	      0.34025599	     -2.75914036	      7.56917843	      0.29794425	    -23.60652056	      7.34509807	     -9.06768791	      2.37721528	     23.23516469	     -0.49621937	     -1.11383902	     -3.58423172	     -2.15230397	     -2.18093413	      0.54215711	      4.51345982	      7.56689318	      3.40266951
      0.94133333	     -3.10165261	     -2.64862745	     -1.42986454	     -0.15530897	      1.05410323	      0.33982373	     -2.57346983	      7.32118455	     -0.06125379	    -24.73467787	      6.87198002	     -8.56534760	      2.50603606	     22.97770773	     -0.30217850	     -0.85035227	     -3.82144785	     -2.56096943	     -2.52724650	      0.52355616	      4.51576178	      7.46319186	      3.42696403
      0.94550000	     -3.03731680	     -2.50657310	     -1.46311342	     -0.14913701	      1.05405004	      0.33931304	     -2.35572368	      7.02479585	     -0.41726730	    -25.93419369	      6.42967535	     -8.02700072	      2.71693653	     22.68818452	     -0.08193445	     -0.48414794	     -4.01989194	     -3.01954763	     -3.12372861	      0.50841362	      4.55675394	      7.39674598	      3.43835271
      0.94966667	     -2.98738826	     -2.36944938	     -1.47056806	     -0.14303451	      1.05398764	      0.33885207	     -2.07866291	      6.73982428	     -0.78988298	    -27.19631553	      5.88377755	     -7.59584974	      2.91677312	     22.44493534	      0.13339669	     -0.22154379	     -4.27520721	     -3.40863374	     -3.57226031	      0.50371950	      4.54233119	      7.24127404	      3.45122427
      0.95383333	     -2.94746835	     -2.23907622	     -1.45725449	     -0.13705529	      1.05391067	      0.33846327	     -1.74383426	      6.46808402	     -1.16103100	    -28.52553347	      5.32359565	     -7.25041389	      3.04595390	     22.24806146	      0.33630214	     -0.05049470	     -4.59243159	     -3.70675052	     -3.86830903	      0.50326224	      4.46406770	      6.99921628	      3.47343820
      0.95800000	     -2.92121425	     -2.05710217	     -1.46335505	     -0.13095959	      1.05389029	      0.33772413	     -1.35739838	      6.08914588	     -1.57034562	    -29.92542343	      4.74458421	     -6.74195282	      3.50581983	     21.99988820	      0.62036019	      0.43744498	     -4.78914617	     -4.29678357	     -4.99190553	      0.51215815	      4.53687896	      6.94089688	      3.45085002
      0.96216667	     -2.85456823	     -1.88229436	     -1.47583045	     -0.12499764	      1.05394117	      0.33737885	     -0.97634910	      5.75445099	     -1.87976533	    -31.36315407	      4.00798006	     -6.42363709	      3.62724964	     21.76388588	      0.85145205	      0.59748488	     -5.09767797	     -4.49916298	     -5.07245676	      0.51810866	      4.45238999	      6.64927275	      3.47106505
      0.96633333	     -2.79157272	     -1.67864987	     -1.49489360	     -0.11903565	      1.05402539	      0.33693125	     -0.55211765	      5.36781953	     -2.19405185	    -32.85078789	      3.12399210	     -6.04338467	      3.77606668	     21.52390488	      1.11688208	      0.80223814	     -5.39109500	     -4.75546703	     -5.38750022	      0.52249211	      4.40956520	      6.40887100	      3.48202007
      0.97050000	     -2.74061386	     -1.46460600	     -1.51011848	     -0.11313555	      1.05411123	      0.33642810	     -0.07175516	      4.96028345	     -2.49652243	    -34.40141408	      2.26385488	     -5.71954306	      3.93185417	     21.30239603	      1.39586400	      1.04857839	     -5.69262398	     -5.00370400	     -5.79575348	      0.52593944	      4.35521139	      6.16159868	      3.48782380
      0.97466667	     -2.72273464	     -1.21100018	     -1.53260773	     -0.10714501	      1.05418957	      0.33562281	      0.47529510	      4.46854920	     -2.81929820	    -35.99857197	      1.37640145	     -5.46790069	      4.47293908	     21.07736478	      1.74001627	      1.50806343	     -5.91924294	     -5.53118584	     -6.94656030	      0.53734578	      4.49989119	      6.08330829	      3.44252807
      0.97883333	     -2.64997161	     -0.98375292	     -1.51716190	     -0.10140944	      1.05432233	      0.33519847	      1.00444223	      4.05271365	     -3.08746580	    -37.63717621	      0.59540208	     -5.21918343	      4.59682823	     20.87710601	      2.02246349	      1.62789313	     -6.29822281	     -5.59174202	     -7.01434151	      0.54438449	      4.32931124	      5.68837443	      3.46030976
      0.98300000	     -2.56932102	     -0.71722325	     -1.55027336	     -0.09560699	      1.05451674	      0.33469924	      1.55145043	      3.57292658	     -3.29129446	    -39.28248060	     -0.49527846	     -4.95625872	      4.76473061	     20.63764553	      2.33946280	      1.77924219	     -6.62870956	     -5.67896879	     -7.27535468	      0.54959517	      4.26941883	      5.39826975	      3.45644891
      0.98716667	     -2.49451116	     -0.44083211	     -1.57464178	     -0.08987848	      1.05470615	      0.33418692	      2.13730657	      3.08224316	     -3.47962015	    -40.96925638	     -1.41318340	     -4.81713768	      4.90703265	     20.41290339	      2.66482381	      1.93431018	     -6.96490020	     -5.76007059	     -7.51350465	      0.55266394	      4.16708674	      5.08960199	      3.45400114
